<mxfile host="app.diagrams.net" agent="Mozilla/5.0 (Macintosh; Intel Mac OS X 10_15_7) AppleWebKit/537.36 (KHTML, like Gecko) Chrome/135.0.0.0 Safari/537.36" version="27.0.9">
  <diagram name="Clases - Restaurante" id="clases-id">
    <mxGraphModel dx="1356" dy="1882" grid="1" gridSize="10" guides="1" tooltips="1" connect="1" arrows="1" fold="1" page="1" pageScale="1" pageWidth="827" pageHeight="1169" math="0" shadow="0">
      <root>
        <mxCell id="0" />
        <mxCell id="1" parent="0" />
        <mxCell id="VMgRb1RBCNDQNNa38u3b-31" value="" style="edgeStyle=orthogonalEdgeStyle;rounded=0;orthogonalLoop=1;jettySize=auto;html=1;entryX=0;entryY=0;entryDx=0;entryDy=0;" edge="1" parent="1" source="VMgRb1RBCNDQNNa38u3b-23" target="VMgRb1RBCNDQNNa38u3b-27">
          <mxGeometry relative="1" as="geometry">
            <mxPoint x="420" y="220" as="targetPoint" />
            <Array as="points">
              <mxPoint x="390" y="220" />
              <mxPoint x="390" y="130" />
            </Array>
          </mxGeometry>
        </mxCell>
        <mxCell id="VMgRb1RBCNDQNNa38u3b-32" style="edgeStyle=orthogonalEdgeStyle;rounded=0;orthogonalLoop=1;jettySize=auto;html=1;entryX=0;entryY=0;entryDx=0;entryDy=0;exitX=1;exitY=0.25;exitDx=0;exitDy=0;" edge="1" parent="1">
          <mxGeometry relative="1" as="geometry">
            <mxPoint x="300" y="222.5" as="sourcePoint" />
            <mxPoint x="480" y="290" as="targetPoint" />
            <Array as="points">
              <mxPoint x="300" y="220" />
              <mxPoint x="390" y="220" />
              <mxPoint x="390" y="290" />
            </Array>
          </mxGeometry>
        </mxCell>
        <mxCell id="VMgRb1RBCNDQNNa38u3b-23" value="Reserva" style="swimlane;childLayout=stackLayout;horizontal=1;startSize=50;horizontalStack=0;rounded=1;fontSize=14;fontStyle=0;strokeWidth=2;resizeParent=0;resizeLast=1;shadow=0;dashed=0;align=center;arcSize=4;whiteSpace=wrap;html=1;" vertex="1" parent="1">
          <mxGeometry x="140" y="150" width="160" height="140" as="geometry" />
        </mxCell>
        <mxCell id="VMgRb1RBCNDQNNa38u3b-24" value="&lt;span style=&quot;text-align: center; text-wrap-mode: nowrap;&quot;&gt;- id: Long&lt;/span&gt;&lt;br style=&quot;padding: 0px; margin: 0px; text-align: center; text-wrap-mode: nowrap;&quot;&gt;&lt;span style=&quot;text-align: center; text-wrap-mode: nowrap;&quot;&gt;- fecha: Date&lt;/span&gt;&lt;br style=&quot;padding: 0px; margin: 0px; text-align: center; text-wrap-mode: nowrap;&quot;&gt;&lt;span style=&quot;text-align: center; text-wrap-mode: nowrap;&quot;&gt;- hora: Time&lt;br&gt;&lt;/span&gt;&lt;span style=&quot;text-align: center; text-wrap-mode: nowrap;&quot;&gt;- cliente: Cliente&lt;/span&gt;&lt;br style=&quot;padding: 0px; margin: 0px; text-align: center; text-wrap-mode: nowrap;&quot;&gt;&lt;span style=&quot;text-align: center; text-wrap-mode: nowrap;&quot;&gt;- mesas: List&amp;lt;Mesa&amp;gt;&lt;/span&gt;&lt;span style=&quot;text-align: center; text-wrap-mode: nowrap;&quot;&gt;&lt;/span&gt;" style="align=left;strokeColor=none;fillColor=none;spacingLeft=4;spacingRight=4;fontSize=12;verticalAlign=top;resizable=0;rotatable=0;part=1;html=1;whiteSpace=wrap;" vertex="1" parent="VMgRb1RBCNDQNNa38u3b-23">
          <mxGeometry y="50" width="160" height="90" as="geometry" />
        </mxCell>
        <mxCell id="VMgRb1RBCNDQNNa38u3b-26" value="Cliente" style="swimlane;childLayout=stackLayout;horizontal=1;startSize=50;horizontalStack=0;rounded=1;fontSize=14;fontStyle=0;strokeWidth=2;resizeParent=0;resizeLast=1;shadow=0;dashed=0;align=center;arcSize=4;whiteSpace=wrap;html=1;" vertex="1" parent="1">
          <mxGeometry x="480" y="70" width="160" height="150" as="geometry" />
        </mxCell>
        <mxCell id="VMgRb1RBCNDQNNa38u3b-27" value="&lt;span style=&quot;text-align: center; text-wrap-mode: nowrap;&quot;&gt;- telefono: String&lt;br&gt;- reservas: List&amp;lt;Rserva&amp;gt;&lt;br&gt;&lt;br&gt;+ saluda()&lt;/span&gt;" style="align=left;strokeColor=none;fillColor=none;spacingLeft=4;spacingRight=4;fontSize=12;verticalAlign=top;resizable=0;rotatable=0;part=1;html=1;whiteSpace=wrap;" vertex="1" parent="VMgRb1RBCNDQNNa38u3b-26">
          <mxGeometry y="50" width="160" height="100" as="geometry" />
        </mxCell>
        <mxCell id="VMgRb1RBCNDQNNa38u3b-28" value="Mesa" style="swimlane;childLayout=stackLayout;horizontal=1;startSize=50;horizontalStack=0;rounded=1;fontSize=14;fontStyle=0;strokeWidth=2;resizeParent=0;resizeLast=1;shadow=0;dashed=0;align=center;arcSize=4;whiteSpace=wrap;html=1;" vertex="1" parent="1">
          <mxGeometry x="490" y="240" width="160" height="190" as="geometry" />
        </mxCell>
        <mxCell id="VMgRb1RBCNDQNNa38u3b-29" value="&lt;span style=&quot;text-align: center; text-wrap-mode: nowrap;&quot;&gt;- id: Long&lt;/span&gt;&lt;br style=&quot;padding: 0px; margin: 0px; text-align: center; text-wrap-mode: nowrap;&quot;&gt;&lt;span style=&quot;text-align: center; text-wrap-mode: nowrap;&quot;&gt;- numero: int&lt;/span&gt;&lt;br style=&quot;padding: 0px; margin: 0px; text-align: center; text-wrap-mode: nowrap;&quot;&gt;&lt;span style=&quot;text-align: center; text-wrap-mode: nowrap;&quot;&gt;- capacidad: int&lt;br&gt;- zona: Zona&lt;br&gt;&lt;/span&gt;&lt;div&gt;&lt;span style=&quot;text-align: center; text-wrap-mode: nowrap;&quot;&gt;- reserva : Reserva&amp;nbsp;&lt;br&gt;- restaurante: Restaurante&lt;br&gt;&lt;br&gt;&lt;/span&gt;&lt;/div&gt;&lt;div&gt;&lt;span style=&quot;text-align: center; text-wrap-mode: nowrap;&quot;&gt;+ getNumero&lt;/span&gt;&lt;/div&gt;&lt;div&gt;&lt;span style=&quot;text-align: center; text-wrap-mode: nowrap;&quot;&gt;+ setCapacidad(int cpacidad)&lt;/span&gt;&lt;/div&gt;" style="align=left;strokeColor=none;fillColor=none;spacingLeft=4;spacingRight=4;fontSize=12;verticalAlign=top;resizable=0;rotatable=0;part=1;html=1;whiteSpace=wrap;" vertex="1" parent="VMgRb1RBCNDQNNa38u3b-28">
          <mxGeometry y="50" width="160" height="140" as="geometry" />
        </mxCell>
        <mxCell id="VMgRb1RBCNDQNNa38u3b-37" value="" style="shape=table;startSize=0;container=1;collapsible=1;childLayout=tableLayout;fixedRows=1;rowLines=0;fontStyle=0;align=center;resizeLast=1;strokeColor=none;fillColor=none;collapsible=0;whiteSpace=wrap;html=1;" vertex="1" parent="1">
          <mxGeometry x="300" y="190" width="180" height="30" as="geometry" />
        </mxCell>
        <mxCell id="VMgRb1RBCNDQNNa38u3b-38" value="" style="shape=tableRow;horizontal=0;startSize=0;swimlaneHead=0;swimlaneBody=0;fillColor=none;collapsible=0;dropTarget=0;points=[[0,0.5],[1,0.5]];portConstraint=eastwest;top=0;left=0;right=0;bottom=0;" vertex="1" parent="VMgRb1RBCNDQNNa38u3b-37">
          <mxGeometry width="180" height="30" as="geometry" />
        </mxCell>
        <mxCell id="VMgRb1RBCNDQNNa38u3b-39" value="" style="shape=partialRectangle;connectable=0;fillColor=none;top=0;left=0;bottom=0;right=0;editable=1;overflow=hidden;" vertex="1" parent="VMgRb1RBCNDQNNa38u3b-38">
          <mxGeometry width="30" height="30" as="geometry">
            <mxRectangle width="30" height="30" as="alternateBounds" />
          </mxGeometry>
        </mxCell>
        <mxCell id="VMgRb1RBCNDQNNa38u3b-40" value="n - 1" style="shape=partialRectangle;connectable=0;fillColor=none;top=0;left=0;bottom=0;right=0;align=left;spacingLeft=6;overflow=hidden;" vertex="1" parent="VMgRb1RBCNDQNNa38u3b-38">
          <mxGeometry x="30" width="150" height="30" as="geometry">
            <mxRectangle width="150" height="30" as="alternateBounds" />
          </mxGeometry>
        </mxCell>
        <mxCell id="VMgRb1RBCNDQNNa38u3b-41" value="" style="shape=table;startSize=0;container=1;collapsible=1;childLayout=tableLayout;fixedRows=1;rowLines=0;fontStyle=0;align=center;resizeLast=1;strokeColor=none;fillColor=none;collapsible=0;whiteSpace=wrap;html=1;" vertex="1" parent="1">
          <mxGeometry x="300" y="220" width="180" height="30" as="geometry" />
        </mxCell>
        <mxCell id="VMgRb1RBCNDQNNa38u3b-42" value="" style="shape=tableRow;horizontal=0;startSize=0;swimlaneHead=0;swimlaneBody=0;fillColor=none;collapsible=0;dropTarget=0;points=[[0,0.5],[1,0.5]];portConstraint=eastwest;top=0;left=0;right=0;bottom=0;" vertex="1" parent="VMgRb1RBCNDQNNa38u3b-41">
          <mxGeometry width="180" height="30" as="geometry" />
        </mxCell>
        <mxCell id="VMgRb1RBCNDQNNa38u3b-43" value="" style="shape=partialRectangle;connectable=0;fillColor=none;top=0;left=0;bottom=0;right=0;editable=1;overflow=hidden;" vertex="1" parent="VMgRb1RBCNDQNNa38u3b-42">
          <mxGeometry width="30" height="30" as="geometry">
            <mxRectangle width="30" height="30" as="alternateBounds" />
          </mxGeometry>
        </mxCell>
        <mxCell id="VMgRb1RBCNDQNNa38u3b-44" value="1 - n" style="shape=partialRectangle;connectable=0;fillColor=none;top=0;left=0;bottom=0;right=0;align=left;spacingLeft=6;overflow=hidden;" vertex="1" parent="VMgRb1RBCNDQNNa38u3b-42">
          <mxGeometry x="30" width="150" height="30" as="geometry">
            <mxRectangle width="150" height="30" as="alternateBounds" />
          </mxGeometry>
        </mxCell>
        <mxCell id="VMgRb1RBCNDQNNa38u3b-52" value="Restaurante" style="swimlane;childLayout=stackLayout;horizontal=1;startSize=50;horizontalStack=0;rounded=1;fontSize=14;fontStyle=0;strokeWidth=2;resizeParent=0;resizeLast=1;shadow=0;dashed=0;align=center;arcSize=4;whiteSpace=wrap;html=1;" vertex="1" parent="1">
          <mxGeometry x="160" y="360" width="160" height="150" as="geometry" />
        </mxCell>
        <mxCell id="VMgRb1RBCNDQNNa38u3b-53" value="&lt;span style=&quot;text-align: center; text-wrap-mode: nowrap;&quot;&gt;- mesas: List&amp;lt;Mesa&amp;gt;&lt;br&gt;&lt;/span&gt;" style="align=left;strokeColor=none;fillColor=none;spacingLeft=4;spacingRight=4;fontSize=12;verticalAlign=top;resizable=0;rotatable=0;part=1;html=1;whiteSpace=wrap;" vertex="1" parent="VMgRb1RBCNDQNNa38u3b-52">
          <mxGeometry y="50" width="160" height="100" as="geometry" />
        </mxCell>
        <mxCell id="VMgRb1RBCNDQNNa38u3b-60" style="edgeStyle=orthogonalEdgeStyle;rounded=0;orthogonalLoop=1;jettySize=auto;html=1;exitX=0.5;exitY=1;exitDx=0;exitDy=0;" edge="1" parent="VMgRb1RBCNDQNNa38u3b-52" source="VMgRb1RBCNDQNNa38u3b-53" target="VMgRb1RBCNDQNNa38u3b-53">
          <mxGeometry relative="1" as="geometry" />
        </mxCell>
        <mxCell id="VMgRb1RBCNDQNNa38u3b-55" style="edgeStyle=orthogonalEdgeStyle;rounded=0;orthogonalLoop=1;jettySize=auto;html=1;entryX=0.994;entryY=0.41;entryDx=0;entryDy=0;entryPerimeter=0;" edge="1" parent="1" source="VMgRb1RBCNDQNNa38u3b-29" target="VMgRb1RBCNDQNNa38u3b-53">
          <mxGeometry relative="1" as="geometry" />
        </mxCell>
        <mxCell id="VMgRb1RBCNDQNNa38u3b-56" value="" style="shape=table;startSize=0;container=1;collapsible=1;childLayout=tableLayout;fixedRows=1;rowLines=0;fontStyle=0;align=center;resizeLast=1;strokeColor=none;fillColor=none;collapsible=0;whiteSpace=wrap;html=1;" vertex="1" parent="1">
          <mxGeometry x="400" y="320" width="180" height="30" as="geometry" />
        </mxCell>
        <mxCell id="VMgRb1RBCNDQNNa38u3b-57" value="" style="shape=tableRow;horizontal=0;startSize=0;swimlaneHead=0;swimlaneBody=0;fillColor=none;collapsible=0;dropTarget=0;points=[[0,0.5],[1,0.5]];portConstraint=eastwest;top=0;left=0;right=0;bottom=0;" vertex="1" parent="VMgRb1RBCNDQNNa38u3b-56">
          <mxGeometry width="180" height="30" as="geometry" />
        </mxCell>
        <mxCell id="VMgRb1RBCNDQNNa38u3b-58" value="" style="shape=partialRectangle;connectable=0;fillColor=none;top=0;left=0;bottom=0;right=0;editable=1;overflow=hidden;" vertex="1" parent="VMgRb1RBCNDQNNa38u3b-57">
          <mxGeometry width="30" height="30" as="geometry">
            <mxRectangle width="30" height="30" as="alternateBounds" />
          </mxGeometry>
        </mxCell>
        <mxCell id="VMgRb1RBCNDQNNa38u3b-59" value="1 - n" style="shape=partialRectangle;connectable=0;fillColor=none;top=0;left=0;bottom=0;right=0;align=left;spacingLeft=6;overflow=hidden;" vertex="1" parent="VMgRb1RBCNDQNNa38u3b-57">
          <mxGeometry x="30" width="150" height="30" as="geometry">
            <mxRectangle width="150" height="30" as="alternateBounds" />
          </mxGeometry>
        </mxCell>
        <mxCell id="VMgRb1RBCNDQNNa38u3b-61" value="Zona" style="swimlane;childLayout=stackLayout;horizontal=1;startSize=50;horizontalStack=0;rounded=1;fontSize=14;fontStyle=0;strokeWidth=2;resizeParent=0;resizeLast=1;shadow=0;dashed=0;align=center;arcSize=4;whiteSpace=wrap;html=1;" vertex="1" parent="1">
          <mxGeometry x="730" y="120" width="160" height="110" as="geometry" />
        </mxCell>
        <mxCell id="VMgRb1RBCNDQNNa38u3b-62" value="&lt;div style=&quot;&quot;&gt;&lt;span style=&quot;background-color: transparent; color: light-dark(rgb(0, 0, 0), rgb(255, 255, 255)); text-wrap-mode: nowrap;&quot;&gt;TERRAZA&lt;/span&gt;&lt;/div&gt;&lt;div style=&quot;&quot;&gt;&lt;span style=&quot;background-color: transparent; color: light-dark(rgb(0, 0, 0), rgb(255, 255, 255)); text-wrap-mode: nowrap;&quot;&gt;PLANTA_BAJA&lt;/span&gt;&lt;/div&gt;&lt;div style=&quot;&quot;&gt;&lt;span style=&quot;text-wrap-mode: nowrap;&quot;&gt;SALON_PRINCIPAL&lt;/span&gt;&lt;/div&gt;" style="align=left;strokeColor=none;fillColor=none;spacingLeft=4;spacingRight=4;fontSize=12;verticalAlign=top;resizable=0;rotatable=0;part=1;html=1;whiteSpace=wrap;" vertex="1" parent="VMgRb1RBCNDQNNa38u3b-61">
          <mxGeometry y="50" width="160" height="60" as="geometry" />
        </mxCell>
        <mxCell id="VMgRb1RBCNDQNNa38u3b-70" style="edgeStyle=orthogonalEdgeStyle;rounded=0;orthogonalLoop=1;jettySize=auto;html=1;entryX=0.5;entryY=0;entryDx=0;entryDy=0;" edge="1" parent="1" source="VMgRb1RBCNDQNNa38u3b-67" target="VMgRb1RBCNDQNNa38u3b-26">
          <mxGeometry relative="1" as="geometry" />
        </mxCell>
        <mxCell id="VMgRb1RBCNDQNNa38u3b-67" value="User" style="swimlane;childLayout=stackLayout;horizontal=1;startSize=50;horizontalStack=0;rounded=1;fontSize=14;fontStyle=0;strokeWidth=2;resizeParent=0;resizeLast=1;shadow=0;dashed=0;align=center;arcSize=4;whiteSpace=wrap;html=1;" vertex="1" parent="1">
          <mxGeometry x="260" y="-100" width="160" height="110" as="geometry" />
        </mxCell>
        <mxCell id="VMgRb1RBCNDQNNa38u3b-68" value="&lt;div style=&quot;&quot;&gt;&lt;span style=&quot;text-wrap-mode: nowrap; text-align: center;&quot;&gt;- id: Long&lt;/span&gt;&lt;br style=&quot;text-wrap-mode: nowrap; padding: 0px; margin: 0px; text-align: center;&quot;&gt;&lt;span style=&quot;text-wrap-mode: nowrap; text-align: center;&quot;&gt;- nombre: String&lt;br&gt;&lt;/span&gt;- password: String&lt;/div&gt;" style="align=left;strokeColor=none;fillColor=none;spacingLeft=4;spacingRight=4;fontSize=12;verticalAlign=top;resizable=0;rotatable=0;part=1;html=1;whiteSpace=wrap;" vertex="1" parent="VMgRb1RBCNDQNNa38u3b-67">
          <mxGeometry y="50" width="160" height="60" as="geometry" />
        </mxCell>
        <mxCell id="VMgRb1RBCNDQNNa38u3b-71" style="edgeStyle=orthogonalEdgeStyle;rounded=0;orthogonalLoop=1;jettySize=auto;html=1;exitX=0;exitY=0.5;exitDx=0;exitDy=0;entryX=0;entryY=0.34;entryDx=0;entryDy=0;entryPerimeter=0;" edge="1" parent="1" source="VMgRb1RBCNDQNNa38u3b-67" target="VMgRb1RBCNDQNNa38u3b-53">
          <mxGeometry relative="1" as="geometry">
            <Array as="points">
              <mxPoint x="50" y="-45" />
              <mxPoint x="50" y="444" />
            </Array>
          </mxGeometry>
        </mxCell>
      </root>
    </mxGraphModel>
  </diagram>
</mxfile>
